<svg xmlns="http://www.w3.org/2000/svg" xmlns:xlink="http://www.w3.org/1999/xlink" version="1.1" x="0px" y="0px" viewBox="7.5 7.5 50 62.5" enable-background="new 7.5 7.5 50 50" xml:space="preserve"><path d="M54.524,54.254c0.05-0.123,0.05-0.26,0-0.383c-0.025-0.061-0.063-0.116-0.109-0.163L11.292,10.584  c-0.046-0.046-0.102-0.083-0.163-0.108c-0.122-0.051-0.26-0.051-0.382,0c-0.123,0.05-0.22,0.148-0.271,0.271  c-0.025,0.061-0.039,0.126-0.039,0.191v43.125c0,0.276,0.224,0.5,0.5,0.5h43.125c0.065,0,0.13-0.014,0.191-0.038  C54.376,54.474,54.474,54.376,54.524,54.254z"/><text x="7.5" y="72.5" fill="#000000" font-size="5px" font-weight="bold" font-family="'Helvetica Neue', Helvetica, Arial-Unicode, Arial, Sans-serif">Created by Abd Majd</text><text x="7.5" y="77.5" fill="#000000" font-size="5px" font-weight="bold" font-family="'Helvetica Neue', Helvetica, Arial-Unicode, Arial, Sans-serif">from the Noun Project</text></svg>